# xmcd CD database file
#
# Track frame offsets:
#	150
#	33230
#	49547
#	59760
#	76560
#	97835
#	112882
#	122025
#	136995
#	149275
#	168165
#	175285
#	178757
#
# Disc length: 2607 seconds
#
# Revision: 3
# Processed by: cddbd v1.4PL0 Copyright (c) Steve Scherf et al.
# Submitted via: CDex 1.50beta10
#
DISCID=a20a2d0d
DTITLE=Ahmet Arif - Hasretinden Prangalar Eskittim
DYEAR=1900
DGENRE=
TTITLE0=Otuz  uc Kursun
TTITLE1=Adilos  Bebenin Ninnisi
TTITLE2=Aksam Erken  iner Mapushaneye
TTITLE3=Yalniz Degiliz
TTITLE4=Suskun
TTITLE5=Anadolu
TTITLE6=Hasretinden Prangalar Eskittim
TTITLE7=Uy Havar
TTITLE8=Kara
TTITLE9=Bu Zindan, Bu KIrgIn, Bu Can Pazari
TTITLE10=Ay Karanlik
TTITLE11=icerde
TTITLE12=Karanfil Sokak
EXTD=
EXTT0=
EXTT1=
EXTT2=
EXTT3=
EXTT4=
EXTT5=
EXTT6=
EXTT7=
EXTT8=
EXTT9=
EXTT10=
EXTT11=
EXTT12=
PLAYORDER=
